<svg width="800" height="800" viewBox="0 0 800 800" fill="none" xmlns="http://www.w3.org/2000/svg">
<rect width="800" height="800" rx="100" fill="url(#paint0_linear_109_358)"/>
<path d="M138.12 609.72L138.408 609.432H139.656C145.288 609.688 151.304 609.752 157.704 609.624C162.184 609.496 164.392 609.432 164.328 609.432H165.288L165.576 609.72C165.832 609.976 165.96 610.2 165.96 610.392L165.096 614.232C164.264 614.616 163.048 614.808 161.448 614.808C158.696 614.872 157.032 615 156.456 615.192L155.976 615.48L155.88 615.576C155.752 615.704 153.992 622.488 150.6 635.928C147.208 649.496 145.352 657.208 145.032 659.064C144.456 663.224 145.032 666.36 146.76 668.472C148.872 671.224 152.264 672.248 156.936 671.544C157.96 671.352 158.952 671.096 159.912 670.776C166.568 668.728 171.24 663.704 173.928 655.704C174.056 655.32 175.752 648.792 179.016 636.12C182.088 623.704 183.56 617.272 183.432 616.824C183.432 616.76 183.336 616.632 183.144 616.44C182.44 615.352 180.488 614.808 177.288 614.808C176.392 614.808 175.848 614.584 175.656 614.136C175.592 613.88 175.688 613.144 175.944 611.928C176.264 610.712 176.552 609.976 176.808 609.72L177.096 609.432H178.152C181.864 609.688 186.792 609.752 192.936 609.624L198.408 609.432H199.176L199.464 609.72C199.72 609.976 199.848 610.2 199.848 610.392L198.984 614.232C198.728 614.616 197.96 614.808 196.68 614.808C194.568 614.872 192.776 615.256 191.304 615.96C190.344 616.408 189.64 617.048 189.192 617.88C188.936 618.264 187.336 624.44 184.392 636.408C181.384 648.248 179.752 654.584 179.496 655.416C177.192 662.584 173.032 668.28 167.016 672.504C162.856 675.448 158.6 676.984 154.248 677.112C148.552 677.304 143.88 675.544 140.232 671.832C139.976 671.576 139.752 671.32 139.56 671.064C135.784 666.52 134.504 661.08 135.72 654.744C135.912 653.528 137.576 646.84 140.712 634.68C143.848 622.008 145.416 615.608 145.416 615.48C145.416 615.288 145.352 615.192 145.224 615.192C144.84 615.064 143.336 614.936 140.712 614.808C138.472 614.808 137.224 614.584 136.968 614.136C136.904 613.944 137 613.208 137.256 611.928C137.576 610.712 137.864 609.976 138.12 609.72ZM209.464 609.72L209.752 609.432H218.872H227.992L228.28 609.72C228.472 609.848 228.632 610.072 228.76 610.392L236.824 633.24C242.2 648.28 244.888 655.832 244.888 655.896C244.888 655.96 244.952 655.864 245.08 655.608C245.336 654.776 246.904 648.6 249.784 637.08C253.048 624.024 254.616 617.272 254.488 616.824C254.488 616.76 254.392 616.632 254.2 616.44C253.496 615.352 251.544 614.808 248.344 614.808C247.448 614.808 246.904 614.584 246.712 614.136C246.648 613.88 246.744 613.144 247 611.928C247.32 610.712 247.608 609.976 247.864 609.72L248.152 609.432H249.208C252.984 609.688 257.976 609.752 264.184 609.624L269.752 609.432H270.52L270.808 609.72C271.064 609.976 271.192 610.2 271.192 610.392L270.328 614.232C270.072 614.616 269.304 614.808 268.024 614.808C265.912 614.872 264.12 615.256 262.648 615.96C261.688 616.408 260.984 617.048 260.536 617.88C260.344 618.2 257.944 627.64 253.336 646.2C248.6 665.144 246.232 674.52 246.232 674.328C246.168 674.456 246.04 674.616 245.848 674.808C245.656 674.936 244.856 675 243.448 675H241.336L241.048 674.712C240.856 674.584 237.688 665.88 231.544 648.6C225.016 630.168 221.816 621.112 221.944 621.432L221.464 620.088L215.608 643.224C211.768 658.648 209.848 666.52 209.848 666.84C209.848 667.288 209.88 667.544 209.944 667.608C210.456 668.952 212.504 669.624 216.088 669.624H217.048L217.432 669.912C217.624 670.168 217.72 670.424 217.72 670.68C217.72 671.704 217.4 672.952 216.76 674.424C216.568 674.808 215.992 674.968 215.032 674.904C214.776 674.904 214.296 674.904 213.592 674.904C205.592 674.648 199.32 674.68 194.776 675H193.912L193.624 674.712C193.368 674.456 193.24 674.2 193.24 673.944C193.24 672.92 193.56 671.672 194.2 670.2C194.328 669.816 194.84 669.624 195.736 669.624C198.616 669.624 200.792 669.144 202.264 668.184C202.904 667.864 203.416 667.384 203.8 666.744C203.992 666.424 206.232 657.72 210.52 640.632C214.744 623.544 216.824 615 216.76 615L212.824 614.808C210.072 614.808 208.568 614.584 208.312 614.136C208.248 613.944 208.344 613.208 208.6 611.928C208.92 610.712 209.208 609.976 209.464 609.72ZM280.328 609.528C280.456 609.464 281 609.432 281.96 609.432C289.32 609.752 297.128 609.784 305.384 609.528C307.368 609.464 308.488 609.624 308.744 610.008C308.872 610.2 308.808 610.936 308.552 612.216C308.232 613.688 307.912 614.488 307.592 614.616C307.272 614.744 306.152 614.808 304.232 614.808C301.224 614.872 299.464 615.032 298.952 615.288C298.632 615.416 298.408 615.64 298.28 615.96C297.96 616.856 295.688 625.688 291.464 642.456C287.048 660.184 284.872 669.08 284.936 669.144C285.064 669.464 287.112 669.624 291.08 669.624H293.192L293.576 669.912C293.768 670.168 293.864 670.392 293.864 670.584L293 674.424C292.808 674.808 292.136 674.968 290.984 674.904C290.664 674.904 290.056 674.904 289.16 674.904C279.176 674.648 271.368 674.68 265.736 675H264.584L264.296 674.712C264.04 674.456 263.912 674.232 263.912 674.04L264.776 670.2C264.968 669.816 265.864 669.624 267.464 669.624C267.784 669.624 268.168 669.624 268.616 669.624C272.008 669.56 273.96 669.304 274.472 668.856C274.536 668.792 276.808 659.896 281.288 642.168C285.704 624.504 287.911 615.608 287.911 615.48C287.911 615.416 287.848 615.32 287.72 615.192C287.4 615 285.736 614.872 282.728 614.808H279.656L279.272 614.424C278.952 614.104 278.984 613.24 279.368 611.832C279.752 610.488 280.072 609.72 280.328 609.528ZM318.031 609.72L318.319 609.432H328.207C334.991 609.432 338.511 609.624 338.767 610.008C338.831 610.072 339.599 618.648 341.071 635.736C342.479 652.888 343.183 661.4 343.183 661.272L357.871 636.12C367.727 619.224 372.719 610.68 372.847 610.488C373.103 610.104 373.391 609.848 373.711 609.72L374.191 609.432H383.887H393.487L393.871 609.72C394.063 609.976 394.159 610.2 394.159 610.392L393.295 614.232C392.463 614.616 391.247 614.808 389.647 614.808C386.895 614.872 385.231 615 384.655 615.192L384.175 615.48L384.079 615.576C383.887 615.768 381.583 624.728 377.167 642.456C372.751 660.248 370.575 669.144 370.639 669.144C370.959 669.464 372.879 669.624 376.399 669.624C377.935 669.624 378.799 669.848 378.991 670.296C379.119 670.488 379.023 671.224 378.703 672.504C378.447 673.72 378.191 674.456 377.935 674.712L377.647 675H376.207C369.743 674.68 362.415 674.648 354.223 674.904C352.303 674.968 351.215 674.776 350.959 674.328C350.831 674.136 350.927 673.4 351.247 672.12C351.567 670.904 351.791 670.168 351.919 669.912L352.303 669.624H355.279C358.287 669.56 359.983 669.432 360.367 669.24C360.687 669.048 360.943 668.632 361.135 667.992C361.583 666.776 363.727 658.456 367.567 643.032C371.791 625.88 373.903 617.368 373.903 617.496C373.839 617.496 368.335 626.904 357.391 645.72C346.319 664.664 340.751 674.168 340.687 674.232L340.015 674.808C339.759 674.936 339.023 675 337.807 675C336.271 675 335.439 674.808 335.311 674.424C335.183 674.104 334.351 664.696 332.815 646.2L330.511 618.168L324.463 642.36C320.431 658.296 318.415 666.488 318.415 666.936C318.415 667.32 318.447 667.544 318.511 667.608C319.023 668.952 321.071 669.624 324.655 669.624C325.551 669.624 326.063 669.848 326.191 670.296C326.319 670.488 326.223 671.224 325.903 672.504C325.647 673.72 325.391 674.456 325.135 674.712L324.847 675H323.599C317.775 674.68 311.471 674.648 304.687 674.904C303.087 674.968 302.159 674.776 301.903 674.328C301.775 674.136 301.871 673.4 302.191 672.12C302.511 670.84 302.767 670.104 302.959 669.912C303.151 669.72 303.567 669.624 304.207 669.624C308.751 669.624 311.535 668.568 312.559 666.456L325.327 615.48C325.327 615.288 325.263 615.192 325.135 615.192C324.751 615.064 323.247 614.936 320.623 614.808C318.383 614.808 317.135 614.584 316.879 614.136C316.815 613.944 316.911 613.208 317.167 611.928C317.487 610.712 317.775 609.976 318.031 609.72ZM433.371 606.456C433.563 606.328 434.363 606.264 435.771 606.264C437.307 606.264 438.171 606.424 438.363 606.744C438.491 606.872 439.099 617.272 440.187 637.944C441.211 658.552 441.787 668.92 441.915 669.048C442.107 669.24 442.299 669.336 442.491 669.336C443.195 669.528 444.827 669.624 447.387 669.624C448.603 669.624 449.275 669.688 449.403 669.816C449.787 669.944 449.979 670.232 449.979 670.68L449.019 674.424C448.763 674.808 448.123 674.968 447.099 674.904C446.843 674.904 446.299 674.904 445.467 674.904C441.115 674.648 435.291 674.616 427.995 674.808C427.355 674.872 426.811 674.904 426.363 674.904C424.251 674.968 423.067 674.808 422.811 674.424C422.683 674.232 422.747 673.496 423.003 672.216C423.323 670.872 423.611 670.072 423.867 669.816C424.059 669.688 424.571 669.624 425.403 669.624C428.027 669.624 429.851 669.368 430.875 668.856L431.355 668.664V667.896L430.971 661.944C430.843 658.424 430.747 656.6 430.683 656.472V656.184H420.891H411.003L408.315 661.08C406.459 664.408 405.467 666.36 405.339 666.936C405.019 668.024 405.787 668.824 407.643 669.336C408.155 669.464 408.731 669.56 409.371 669.624C410.267 669.624 410.811 669.848 411.003 670.296C411.067 670.616 410.939 671.352 410.619 672.504C410.363 673.72 410.107 674.456 409.851 674.712L409.563 675H408.315C402.619 674.68 396.859 674.648 391.035 674.904C389.627 674.968 388.827 674.808 388.635 674.424C388.507 674.232 388.571 673.496 388.827 672.216C389.211 670.744 389.563 669.944 389.883 669.816C390.075 669.752 390.555 669.688 391.323 669.624C395.419 669.432 398.363 668.056 400.155 665.496C400.539 664.984 406.011 655.128 416.571 635.928L432.603 606.936C432.859 606.744 433.115 606.584 433.371 606.456ZM429.819 637.656C429.307 628.696 429.051 624.184 429.051 624.12V623.544L421.467 637.176L413.979 650.712L422.139 650.808C427.643 650.808 430.395 650.776 430.395 650.712L429.819 637.656ZM478.027 610.2L478.219 610.008H504.523C522.187 610.008 531.179 610.2 531.499 610.584C531.627 610.904 531.051 614.744 529.771 622.104C528.363 629.656 527.659 633.464 527.659 633.528C527.467 633.848 526.603 634.008 525.067 634.008C523.531 634.008 522.699 633.816 522.571 633.432C522.443 633.176 522.507 632.216 522.763 630.552C523.723 625.112 523.979 621.432 523.531 619.512C523.467 618.744 523.083 618.072 522.379 617.496C521.803 616.92 520.971 616.44 519.883 616.056C518.539 615.608 516.395 615.384 513.451 615.384C510.443 615.384 508.811 615.576 508.555 615.96L495.307 669.048C495.819 669.368 498.283 669.56 502.699 669.624C505.643 669.624 507.243 669.848 507.499 670.296C507.563 670.488 507.467 671.224 507.211 672.504C506.891 673.72 506.603 674.456 506.347 674.712L506.059 675H504.331C496.011 674.68 486.283 674.648 475.147 674.904C472.651 674.968 471.275 674.776 471.019 674.328C470.955 674.136 471.051 673.4 471.307 672.12C471.627 670.904 471.915 670.168 472.171 669.912L472.459 669.624H475.243C479.403 669.624 481.995 669.528 483.019 669.336C483.723 669.144 484.107 669.048 484.171 669.048C484.491 668.92 484.715 668.728 484.843 668.472C485.291 667.512 487.563 658.712 491.659 642.072C496.075 624.408 498.251 615.576 498.187 615.576C497.995 615.448 496.299 615.384 493.099 615.384C490.795 615.448 489.387 615.544 488.875 615.672C487.339 615.928 486.027 616.344 484.939 616.92C483.787 617.496 482.859 618.136 482.155 618.84C480.555 620.44 478.763 624.248 476.779 630.264C476.011 632.376 475.627 633.464 475.627 633.528C475.371 633.848 474.507 634.008 473.035 634.008C471.499 634.008 470.667 633.816 470.539 633.432C470.411 633.176 470.347 633.016 470.347 632.952L477.643 610.68C477.643 610.488 477.771 610.328 478.027 610.2ZM543.578 609.528C543.706 609.464 544.25 609.432 545.21 609.432C552.57 609.752 560.378 609.784 568.634 609.528C570.618 609.464 571.738 609.624 571.994 610.008C572.122 610.2 572.058 610.936 571.802 612.216C571.482 613.688 571.162 614.488 570.842 614.616C570.522 614.744 569.402 614.808 567.482 614.808C564.474 614.872 562.714 615.032 562.202 615.288C561.882 615.416 561.658 615.64 561.53 615.96C561.21 616.856 558.938 625.688 554.714 642.456C550.298 660.184 548.122 669.08 548.186 669.144C548.314 669.464 550.362 669.624 554.33 669.624H556.442L556.826 669.912C557.018 670.168 557.114 670.392 557.114 670.584L556.25 674.424C556.058 674.808 555.386 674.968 554.234 674.904C553.914 674.904 553.306 674.904 552.41 674.904C542.426 674.648 534.618 674.68 528.986 675H527.834L527.546 674.712C527.29 674.456 527.162 674.232 527.162 674.04L528.026 670.2C528.218 669.816 529.114 669.624 530.714 669.624C531.034 669.624 531.418 669.624 531.866 669.624C535.258 669.56 537.21 669.304 537.722 668.856C537.786 668.792 540.058 659.896 544.538 642.168C548.954 624.504 551.161 615.608 551.161 615.48C551.161 615.416 551.098 615.32 550.97 615.192C550.65 615 548.986 614.872 545.978 614.808H542.906L542.522 614.424C542.202 614.104 542.234 613.24 542.618 611.832C543.002 610.488 543.322 609.72 543.578 609.528ZM612.385 607.416L614.401 607.32H614.497C620.129 607.32 624.513 609.368 627.649 613.464C628.097 614.168 628.353 614.52 628.417 614.52L632.065 610.968L635.713 607.32H636.481C637.313 607.32 637.793 607.512 637.921 607.896C637.985 608.024 636.929 612.568 634.753 621.528C632.449 630.744 631.297 635.256 631.297 635.064C631.169 635.448 630.273 635.64 628.609 635.64H626.593L626.305 635.352C626.049 635.096 625.985 634.52 626.113 633.624C626.625 630.296 626.721 627.128 626.401 624.12C625.697 617.848 623.233 614.136 619.009 612.984C618.433 612.856 617.537 612.792 616.321 612.792C613.953 612.728 611.457 613.112 608.833 613.944C605.697 614.968 602.881 616.504 600.385 618.552C594.689 622.904 590.465 629.848 587.713 639.384C585.985 645.72 585.121 650.936 585.121 655.032C585.121 657.976 585.505 660.44 586.273 662.424C587.937 666.776 591.073 669.624 595.681 670.968C596.129 671.096 596.577 671.192 597.025 671.256C603.105 672.536 608.641 670.744 613.633 665.88C617.345 662.04 620.033 657.368 621.697 651.864C622.017 650.776 622.337 650.2 622.657 650.136C622.849 650.072 623.489 650.04 624.577 650.04C626.177 650.04 627.073 650.232 627.265 650.616C627.329 650.872 627.265 651.32 627.073 651.96C624.961 659.64 620.769 665.944 614.497 670.872C612.705 672.28 610.817 673.464 608.833 674.424C604.865 676.28 600.897 677.176 596.929 677.112C594.177 677.048 591.489 676.472 588.865 675.384C584.513 673.72 581.121 670.936 578.689 667.032C576.449 663.704 575.073 659.768 574.561 655.224C574.305 653.624 574.273 651.384 574.465 648.504C574.529 648.184 574.561 647.928 574.561 647.736C575.329 640.568 577.825 633.752 582.049 627.288C583.329 625.496 584.449 624.024 585.409 622.872C587.137 620.76 589.281 618.616 591.841 616.44C598.369 611.128 605.217 608.12 612.385 607.416ZM667.76 607.512C669.68 607.192 671.664 607.256 673.712 607.704C675.632 608.088 677.328 608.76 678.8 609.72C679.568 610.232 680.464 611.064 681.488 612.216C681.68 612.536 681.808 612.728 681.872 612.792L684.464 610.104C686.256 608.312 687.184 607.416 687.248 607.416C687.248 607.352 687.536 607.32 688.112 607.32C688.816 607.32 689.264 607.512 689.456 607.896C689.52 608.152 688.624 611.992 686.768 619.416C684.848 626.968 683.824 630.808 683.696 630.936L683.408 631.224H681.392C679.728 631.224 678.832 631.064 678.704 630.744C678.64 630.488 678.672 629.944 678.8 629.112C679.824 622.392 678.992 617.688 676.304 615C674.832 613.464 672.72 612.6 669.968 612.408C666.832 612.344 663.984 613.592 661.424 616.152C660.08 617.496 659.056 618.872 658.352 620.28C657.2 622.712 656.656 625.048 656.72 627.288C656.784 628.76 657.04 629.912 657.488 630.744C658.128 632.088 659.024 633.048 660.176 633.624C660.304 633.688 662.352 634.328 666.32 635.544C670.736 636.824 673.36 637.72 674.192 638.232C678.288 640.6 680.4 644.728 680.528 650.616C680.592 655.288 679.28 659.96 676.592 664.632C674.544 668.28 671.76 671.288 668.24 673.656C665.808 675.256 663.28 676.312 660.656 676.824C660.016 676.952 658.96 677.016 657.488 677.016C655.312 677.016 653.456 676.824 651.92 676.44C648.784 675.608 646.256 674.2 644.336 672.216L643.568 671.448L640.976 674.136L638.192 677.016L637.232 677.112H637.136C636.624 677.112 636.272 677.016 636.08 676.824C635.888 676.632 635.792 676.472 635.792 676.344C635.792 676.152 637.648 668.632 641.359 653.784C641.808 653.4 642.704 653.208 644.048 653.208H646.064L646.352 653.496C646.608 653.752 646.64 654.392 646.448 655.416C646.448 655.544 646.416 655.704 646.352 655.896C645.584 659.672 645.776 662.84 646.928 665.4C648.272 668.728 651.088 670.744 655.376 671.448C657.232 671.768 658.704 671.832 659.792 671.64C663.184 671.064 666.128 668.792 668.624 664.824C669.584 663.288 670.32 661.656 670.832 659.928C671.216 658.52 671.408 656.952 671.408 655.224C671.408 653.56 671.216 652.28 670.832 651.384C670.192 649.784 669.232 648.696 667.952 648.12C667.504 647.864 665.424 647.192 661.712 646.104C657.872 645.016 655.6 644.312 654.896 643.992C653.616 643.352 652.432 642.488 651.344 641.4C648.528 638.456 647.312 634.616 647.696 629.88C648.08 625.272 649.776 620.888 652.784 616.728C654.384 614.744 656.08 613.08 657.872 611.736C661.072 609.304 664.368 607.896 667.76 607.512Z" fill="white"/>
<circle cx="400" cy="321" r="225" fill="url(#paint1_linear_109_358)" stroke="#F8F8F8" stroke-width="20"/>
<path d="M346.26 168.792C354.729 167.223 362.501 167.985 368.787 171.074C374.65 173.955 379.875 179.173 383.318 187.934V452.666C379.822 462.329 373.161 467.93 364.971 470.532C356.165 473.33 345.178 472.744 334.3 468.804C312.331 460.846 294.194 440.727 296.483 415.037L296.963 409.655L292.149 407.2C280.752 401.389 273.616 396.607 268.469 390.211C263.363 383.866 259.62 375.175 256.682 360.457L255.902 356.554L252.317 354.821L251.871 354.597C247.275 352.193 243.241 347.23 240.324 339.709C237.342 332.02 235.865 322.448 236.01 312.599C236.154 302.759 237.911 293.1 241.007 285.278C244.161 277.308 248.317 272.176 252.607 269.883L255.651 268.256L256.557 264.926C260.939 248.805 265.318 237.877 271.565 228.852C277.778 219.876 286.216 212.243 299.562 203.354L301.174 202.282L302.116 200.591C311.153 184.377 329.092 171.974 346.26 168.792Z" stroke="#F8F8F8" stroke-width="16"/>
<path d="M334.571 329.389H240V310.151H289.482V258.449C294.755 242.412 315.333 228.991 334.571 218.77V205.544C341.855 198.956 346.142 198.169 354.41 205.544V228.991L309.321 258.449V310.151H354.41V389.508H334.571V368.467H290.083C283.705 361.83 283.81 357.533 290.083 349.229H334.571V329.389Z" fill="#F8F8F8"/>
<circle cx="339.982" cy="419.137" r="15.6309" fill="#F8F8F8"/>
<circle cx="339.982" cy="276.054" r="15.6309" fill="#F8F8F8"/>
<path d="M454.059 168.792C445.59 167.223 437.818 167.985 431.532 171.074C425.669 173.955 420.444 179.173 417 187.934V452.666C420.496 462.329 427.158 467.93 435.348 470.532C444.153 473.33 455.141 472.744 466.019 468.804C487.988 460.846 506.125 440.727 503.835 415.037L503.356 409.655L508.169 407.2C519.566 401.389 526.702 396.607 531.85 390.211C536.956 383.866 540.698 375.175 543.637 360.457L544.417 356.554L548.001 354.821L548.448 354.597C553.043 352.193 557.078 347.23 559.995 339.709C562.976 332.02 564.454 322.448 564.309 312.599C564.165 302.759 562.408 293.1 559.312 285.278C556.157 277.308 552.002 272.176 547.711 269.883L544.667 268.256L543.762 264.926C539.38 248.805 535.001 237.877 528.753 228.852C522.54 219.876 514.103 212.243 500.756 203.354L499.145 202.282L498.203 200.591C489.166 184.377 471.227 171.974 454.059 168.792Z" stroke="#F8F8F8" stroke-width="16"/>
<path d="M489.679 258.449V310.151H418.5V329.389H535.001C543.261 321.396 543.042 317.176 535.001 310.151H509.518V258.449C504.244 242.412 483.667 228.991 464.429 218.77V205.544C457.145 198.956 452.857 198.169 444.589 205.544V228.991L489.679 258.449Z" fill="#F8F8F8"/>
<path d="M509.518 349.399H465.03H445.792V430.129C453.321 436.228 457.511 436.34 465.03 430.129V368.637H509.518C515.896 362 515.791 357.703 509.518 349.399Z" fill="#F8F8F8"/>
<circle cx="459.018" cy="276.054" r="8" fill="#F8F8F8" stroke="#F8F8F8" stroke-width="15.2619"/>
<defs>
<linearGradient id="paint0_linear_109_358" x1="400" y1="85.5" x2="400" y2="556" gradientUnits="userSpaceOnUse">
<stop stop-color="#16166B"/>
<stop offset="1" stop-color="#1D1D1D"/>
</linearGradient>
<linearGradient id="paint1_linear_109_358" x1="400" y1="86" x2="400" y2="556" gradientUnits="userSpaceOnUse">
<stop stop-color="#16166B"/>
<stop offset="1" stop-color="#1D1D1D"/>
</linearGradient>
</defs>
</svg>
