<svg width="470" height="470" viewBox="0 0 470 470" fill="none" xmlns="http://www.w3.org/2000/svg">
<circle cx="235" cy="235" r="225" fill="url(#paint0_linear_108_108)" stroke="#F8F8F8" stroke-width="20"/>
<path d="M181.26 82.792C189.729 81.2226 197.501 81.9854 203.787 85.0742C209.65 87.9552 214.875 93.1734 218.318 101.934V366.666C214.822 376.329 208.161 381.93 199.971 384.532C191.165 387.33 180.178 386.744 169.3 382.804C147.331 374.846 129.194 354.727 131.483 329.037L131.963 323.655L127.149 321.2C115.752 315.389 108.616 310.607 103.469 304.211C98.3626 297.866 94.6204 289.175 91.6816 274.457L90.9023 270.554L87.3174 268.821L86.8711 268.597C82.2754 266.193 78.2408 261.23 75.3242 253.709C72.3425 246.02 70.8651 236.448 71.0098 226.599C71.1543 216.759 72.9112 207.1 76.0068 199.278C79.1615 191.308 83.3171 186.176 87.6074 183.883L90.6514 182.256L91.5566 178.926C95.9388 162.805 100.318 151.877 106.565 142.852C112.778 133.876 121.216 126.243 134.562 117.354L136.174 116.282L137.116 114.591C146.153 98.3775 164.092 85.9737 181.26 82.792Z" stroke="#F8F8F8" stroke-width="16"/>
<path d="M169.571 243.389H75V224.151H124.482V172.449C129.755 156.412 150.333 142.991 169.571 132.77V119.544C176.855 112.956 181.142 112.169 189.41 119.544V142.991L144.321 172.449V224.151H189.41V303.508H169.571V282.467H125.083C118.705 275.83 118.81 271.533 125.083 263.229H169.571V243.389Z" fill="#F8F8F8"/>
<circle cx="174.982" cy="333.137" r="15.6309" fill="#F8F8F8"/>
<circle cx="174.982" cy="190.054" r="15.6309" fill="#F8F8F8"/>
<path d="M289.059 82.792C280.59 81.2226 272.817 81.9854 266.531 85.0742C260.668 87.9552 255.443 93.1734 252 101.934V366.666C255.496 376.329 262.158 381.93 270.348 384.532C279.153 387.33 290.14 386.744 301.019 382.804C322.987 374.846 341.124 354.727 338.835 329.037L338.355 323.655L343.169 321.2C354.566 315.389 361.702 310.607 366.85 304.211C371.956 297.866 375.698 289.175 378.637 274.457L379.416 270.554L383.001 268.821L383.447 268.597C388.043 266.193 392.078 261.23 394.994 253.709C397.976 246.02 399.453 236.448 399.309 226.599C399.164 216.759 397.407 207.1 394.312 199.278C391.157 191.308 387.001 186.176 382.711 183.883L379.667 182.256L378.762 178.926C374.38 162.805 370 151.877 363.753 142.852C357.54 133.876 349.102 126.243 335.756 117.354L334.145 116.282L333.202 114.591C324.165 98.3775 306.227 85.9737 289.059 82.792Z" stroke="#F8F8F8" stroke-width="16"/>
<path d="M324.678 172.449V224.151H253.5V243.389H370C378.26 235.396 378.041 231.176 370 224.151H344.517V172.449C339.244 156.412 318.666 142.991 299.428 132.77V119.544C292.144 112.956 287.857 112.169 279.589 119.544V142.991L324.678 172.449Z" fill="#F8F8F8"/>
<path d="M344.518 263.399H300.03H280.792V344.129C288.321 350.228 292.511 350.34 300.03 344.129V282.637H344.518C350.896 276 350.791 271.703 344.518 263.399Z" fill="#F8F8F8"/>
<circle cx="294.018" cy="190.054" r="8" fill="#F8F8F8" stroke="#F8F8F8" stroke-width="15.2619"/>
<defs>
<linearGradient id="paint0_linear_108_108" x1="235" y1="0" x2="235" y2="470" gradientUnits="userSpaceOnUse">
<stop stop-color="#16166B"/>
<stop offset="1" stop-color="#1D1D1D"/>
</linearGradient>
</defs>
</svg>
